<?xml version="1.0" encoding="UTF-8"?> <svg xmlns="http://www.w3.org/2000/svg" width="90" height="55" viewBox="0 0 90 55" fill="none"> <path d="M0 0V55H90V0H0ZM3.26127 51.7147V3.28532H86.731V51.7147H3.26127Z" fill="#4DBDC6"></path> <path d="M11.4248 30.9736H14.6152L16.9137 40.3485L19.4771 30.9736H21.9419L24.5099 40.3485L26.8053 30.9736H29.9957L26.3308 44.3648H22.877L20.711 36.4688L18.5543 44.3694H15.0974L11.4248 30.9736Z" fill="#4DBDC6"></path> <path d="M30.2454 37.6703C30.2454 36.2931 30.6508 34.9468 31.4103 33.8017C32.1698 32.6566 33.2494 31.7641 34.5125 31.2371C35.7755 30.71 37.1653 30.5722 38.5062 30.8408C39.8471 31.1095 41.0787 31.7727 42.0454 32.7465C43.0121 33.7204 43.6704 34.9611 43.9372 36.3118C44.2039 37.6626 44.067 39.0627 43.5438 40.335C43.0206 41.6074 42.1347 42.6949 40.9979 43.46C39.8612 44.2252 38.5248 44.6336 37.1577 44.6336C36.2477 44.6416 35.3453 44.467 34.503 44.12C33.6607 43.7729 32.8956 43.2603 32.2521 42.6121C31.6086 41.9639 31.0998 41.193 30.7552 40.3445C30.4107 39.4961 30.2374 38.587 30.2454 37.6703ZM41.029 37.6703C41.029 35.2789 39.319 33.6913 37.1546 33.6913C34.9902 33.6913 33.2802 35.2789 33.2802 37.6703C33.2802 40.0617 34.9902 41.6493 37.1546 41.6493C39.319 41.6493 41.0321 40.0617 41.0321 37.6703H41.029Z" fill="#4DBDC6"></path> <path d="M50.3173 39.9652H48.8738V44.3648H45.8359V30.9736H51.1523C51.7513 30.9722 52.3447 31.09 52.8984 31.3203C53.452 31.5505 53.9551 31.8887 54.3787 32.3154C54.8023 32.7421 55.138 33.2489 55.3666 33.8067C55.5951 34.3644 55.7121 34.9622 55.7106 35.5656C55.7106 37.2106 54.7232 38.702 53.2612 39.4453L56.0896 44.3617H52.8237L50.3173 39.9652ZM48.8738 37.2867H51.1523C51.9888 37.2867 52.6712 36.5402 52.6712 35.5656C52.6712 34.5911 51.9888 33.8431 51.1523 33.8431H48.8738V37.2867Z" fill="#4DBDC6"></path> <path d="M65.358 41.4193V44.3679H57.5723V30.9736H60.6102V41.4193H65.358Z" fill="#4DBDC6"></path> <path d="M78.5183 37.67C78.5183 41.4581 75.7269 44.3648 72.062 44.3648H66.7441V30.9736H72.062C75.7269 30.9736 78.5183 33.8819 78.5183 37.67ZM75.5913 37.67C75.5913 35.3732 74.1479 33.9206 72.0589 33.9206H69.7851V41.4193H72.0635C74.1509 41.4193 75.5944 39.9652 75.5944 37.67H75.5913Z" fill="#4DBDC6"></path> <path d="M20.1021 17.4276C19.3919 17.1172 18.6386 16.9154 17.9145 16.6408C17.2336 16.3816 16.5496 16.1209 15.8964 15.8027C15.6886 15.7105 15.5185 15.5493 15.4145 15.3459C15.3105 15.1426 15.2788 14.9094 15.3249 14.6854C15.4019 14.1903 15.7409 13.942 16.183 13.8039C16.7051 13.6402 17.2652 13.6475 17.7829 13.8248C18.3006 14.0022 18.749 14.3405 19.0637 14.7909C19.1978 14.9849 19.3133 15.1929 19.4473 15.4117L20.8492 14.5845C21.3206 14.3083 21.7899 14.0315 22.2572 13.7543C21.9055 12.9583 21.3742 12.2561 20.7056 11.7036C20.037 11.151 19.2495 10.7633 18.4059 10.5714C17.968 10.4445 17.5152 10.3766 17.0595 10.3696C16.3525 10.3737 15.6509 10.4948 14.9829 10.7281C13.1343 11.3489 12.0143 12.8526 11.9327 14.7273C11.8511 16.602 12.7399 17.9614 14.567 18.8118C14.6592 18.8578 14.7538 18.8987 14.8504 18.9344C15.7609 19.2324 16.679 19.5071 17.5802 19.8299C18.0359 19.9772 18.4696 20.186 18.8696 20.4506C19.5675 20.9441 19.452 21.9047 18.6755 22.2647C18.4134 22.3769 18.1371 22.4516 17.8544 22.4867C16.2723 22.7241 15.0445 22.0832 14.3113 20.6601C14.282 20.6011 14.2435 20.5453 14.2003 20.4739C13.2991 20.9969 12.4041 21.5245 11.5014 22.0366C11.3119 22.1453 11.3673 22.2601 11.4305 22.406C11.9419 23.59 12.7461 24.5134 13.8953 25.0721C14.831 25.5406 15.8551 25.8028 16.8993 25.8413C17.9435 25.8799 18.9839 25.6938 19.9511 25.2956C21.6734 24.6189 22.61 23.2998 22.684 21.4081C22.7594 19.4714 21.8259 18.174 20.1021 17.4276Z" fill="white"></path> <path d="M67.8318 10.6987C67.7797 10.7026 67.7281 10.7114 67.6777 10.7251V13.9747H71.4505V25.4943H74.8196V13.9499H78.6277V10.708C75.0291 10.708 71.4304 10.7049 67.8318 10.6987Z" fill="white"></path> <path d="M35.9897 10.6891C35.8947 10.6801 35.7994 10.7009 35.7166 10.7487C35.6339 10.7965 35.5678 10.8689 35.5276 10.956C34.3342 12.9517 33.1285 14.9443 31.9104 16.9338C31.8473 17.0362 31.7779 17.1355 31.6994 17.2566C31.6146 17.1216 31.5453 17.0176 31.4806 16.909C30.279 14.9277 29.0754 12.947 27.8696 10.9668C27.8019 10.8551 27.6663 10.7092 27.5615 10.7077C26.5017 10.6891 25.4403 10.6968 24.3604 10.6968V25.5063H27.6987V17.0533C27.8103 17.1191 27.9011 17.2154 27.9605 17.3311L31.3296 22.8976C31.5915 23.3306 31.8072 23.3322 32.066 22.8976L35.4551 17.3016C35.5137 17.2054 35.5815 17.1154 35.6446 17.0223L35.7155 17.0595V25.497H39.0553V10.6953C38.017 10.6953 37.0034 10.7077 35.9897 10.6891Z" fill="white"></path> <path d="M64.6186 19.8766C66.4087 18.7701 67.2991 16.7263 66.8647 14.7274C66.6362 13.5879 66.023 12.5633 65.1293 11.8277C64.2357 11.0922 63.1168 10.6911 61.9628 10.6926C60.0664 10.6724 58.17 10.6926 56.2736 10.6926C56.1957 10.6959 56.1181 10.7036 56.041 10.7158V25.5052H59.3886V20.6478C59.843 20.6478 60.2528 20.6634 60.661 20.6478C60.7654 20.6366 60.8705 20.6602 60.9604 20.7148C61.0502 20.7694 61.1198 20.8522 61.1586 20.9505C61.9643 22.3921 62.7869 23.8261 63.6127 25.2569C63.6774 25.3702 63.8129 25.5176 63.9208 25.5192C65.05 25.5394 66.1792 25.5316 67.3915 25.5316L64.2658 20.1L64.6186 19.8766ZM63.5079 16.3864C63.4133 16.7691 63.19 17.1071 62.876 17.3427C62.562 17.5784 62.1767 17.6972 61.7856 17.6791C60.9999 17.6791 60.2158 17.6791 59.4101 17.6791V13.891C60.3344 13.891 61.2587 13.8273 62.1569 13.908C63.1998 14.0012 63.8437 15.2566 63.5079 16.3864Z" fill="white"></path> <path d="M49.7838 10.9453C49.7677 10.8632 49.7203 10.7907 49.6517 10.7434C49.5832 10.6961 49.4989 10.6778 49.4171 10.6924C48.1955 10.6924 46.9723 10.7064 45.7507 10.6924C45.4734 10.6924 45.361 10.7746 45.2731 11.0369C44.0346 14.7366 42.7883 18.4342 41.5343 22.1297C41.1615 23.2378 40.7856 24.3442 40.4082 25.4647C40.4729 25.5004 40.4914 25.519 40.5114 25.519C41.6422 25.519 42.7729 25.5314 43.9005 25.519C43.9822 25.519 44.1039 25.3902 44.1362 25.2971C44.3427 24.6888 44.5383 24.0773 44.7186 23.4597C44.7242 23.4182 44.738 23.3784 44.7592 23.3425C44.7805 23.3066 44.8087 23.2754 44.8423 23.2508C44.8758 23.2261 44.9139 23.2086 44.9543 23.1991C44.9947 23.1897 45.0366 23.1886 45.0775 23.1958C46.7207 23.2041 48.3639 23.2041 50.0071 23.1958C50.048 23.1895 50.0897 23.1915 50.1298 23.2018C50.1699 23.212 50.2075 23.2303 50.2404 23.2555C50.2733 23.2807 50.3008 23.3123 50.3214 23.3484C50.3419 23.3846 50.355 23.4245 50.3599 23.4659C50.5355 24.0602 50.742 24.6453 50.9099 25.2428C50.9761 25.4771 51.087 25.5392 51.3181 25.5361C52.3349 25.5237 53.3516 25.5361 54.3683 25.5361C54.4639 25.5361 54.5609 25.519 54.6764 25.5097C54.6533 25.4181 54.6441 25.3623 54.6256 25.3095C53.0122 20.5183 51.3982 15.7303 49.7838 10.9453ZM45.837 20.0083C46.4008 18.219 46.9585 16.453 47.5485 14.5767C48.1339 16.4281 48.69 18.1879 49.2646 20.0083H45.837Z" fill="white"></path> </svg> 